# xmcd
#
# Track frame offsets:
#	150
#	9947
#	22377
#	42047
#	51937
#	70140
#	82837
#	98157
#	111277
#	124200
#	139897
#	153062
#	166707
#	178920
#	189765
#
# Disc length: 2784 seconds
#
# Revision: 1
# Processed by: cddbd v1.5.2PL0 Copyright (c) Steve Scherf et al.
# Submitted via: audiograbber 1.83.01
#
DISCID=ba0ade0f
DTITLE=The Two Queens - Philomena and Margo - OLd friends share old memories
DYEAR=1996
DGENRE=Country
TTITLE0=Philomena and Margo - Mother may I
TTITLE1=Margo - God's colouring book
TTITLE2=Philomena - Gold and silver days
TTITLE3=Philomena and Margo - I see god
TTITLE4=Philomena and Margo - He took your place
TTITLE5=Margo - Wishful thinking
TTITLE6=Philomena - Crystal chandeliers
TTITLE7=Philomena and Margo - Golden memories
TTITLE8=Philomena and Margo - The way old friends go
TTITLE9=Philomena - Colour me blue
TTITLE10=Margo - Darling days
TTITLE11=Philomena and Margo - There'll be love
TTITLE12=Philomena and Margo - Husband hunting
TTITLE13=Philomena and Margo - Halleluja in my heart
TTITLE14=Philomena and Margo (Live) - Live from The Grand Ole Opry
EXTD=
EXTT0=
EXTT1=
EXTT2=
EXTT3=
EXTT4=
EXTT5=
EXTT6=
EXTT7=
EXTT8=
EXTT9=
EXTT10=
EXTT11=
EXTT12=
EXTT13=
EXTT14=
PLAYORDER=
